<?xml version="1.0" encoding="UTF-8"?><svg xmlns="http://www.w3.org/2000/svg" xmlns:xlink="http://www.w3.org/1999/xlink" width="375" zoomAndPan="magnify" viewBox="0 0 375 374.999991" height="374.999991" preserveAspectRatio="xMidYMid meet" version="1.0"><path fill="rgb(100%, 91.758728%, 27.839661%)" d="M 46.875 105.46875 L 70.3125 105.46875 L 70.3125 152.34375 L 69.492188 153.398438 L 23.4375 117.1875 L 22.03125 115.78125 C 23.660156 114.148438 25.433594 112.6875 27.351562 111.402344 C 29.269531 110.117188 31.292969 109.035156 33.421875 108.148438 C 35.554688 107.265625 37.753906 106.597656 40.015625 106.144531 C 42.28125 105.695312 44.566406 105.46875 46.875 105.46875 Z M 46.875 105.46875 " fill-opacity="1" fill-rule="nonzero"/><path fill="rgb(96.078491%, 69.40918%, 11.369324%)" d="M 363.28125 140.625 L 363.28125 328.125 C 363.28125 330.433594 363.054688 332.71875 362.605469 334.980469 C 362.152344 337.246094 361.484375 339.441406 360.601562 341.574219 C 359.714844 343.707031 358.632812 345.730469 357.347656 347.648438 C 356.0625 349.566406 354.601562 351.339844 352.96875 352.96875 L 222.65625 222.65625 L 220.664062 220.078125 L 305.507812 153.398438 L 351.5625 117.1875 L 352.96875 115.78125 C 354.601562 117.410156 356.0625 119.183594 357.347656 121.101562 C 358.632812 123.019531 359.714844 125.042969 360.601562 127.171875 C 361.484375 129.304688 362.152344 131.503906 362.605469 133.765625 C 363.054688 136.03125 363.28125 138.316406 363.28125 140.625 Z M 363.28125 140.625 " fill-opacity="1" fill-rule="nonzero"/><path fill="rgb(100%, 91.758728%, 27.839661%)" d="M 328.125 105.46875 C 330.433594 105.46875 332.71875 105.695312 334.980469 106.144531 C 337.246094 106.597656 339.441406 107.265625 341.574219 108.148438 C 343.707031 109.035156 345.730469 110.117188 347.648438 111.402344 C 349.566406 112.6875 351.339844 114.148438 352.96875 115.78125 L 351.5625 117.1875 L 305.507812 153.398438 L 304.6875 152.34375 L 304.6875 105.46875 Z M 328.125 105.46875 " fill-opacity="1" fill-rule="nonzero"/><path fill="rgb(100%, 100%, 100%)" d="M 304.6875 152.34375 L 305.507812 153.398438 L 220.664062 220.078125 L 187.5 246.09375 L 154.335938 220.078125 L 69.492188 153.398438 L 70.3125 152.34375 L 70.3125 23.4375 C 70.3125 22.667969 70.386719 21.90625 70.539062 21.152344 C 70.6875 20.398438 70.910156 19.664062 71.203125 18.953125 C 71.5 18.242188 71.859375 17.566406 72.289062 16.925781 C 72.714844 16.289062 73.199219 15.695312 73.746094 15.152344 C 74.289062 14.605469 74.882812 14.121094 75.519531 13.695312 C 76.160156 13.265625 76.835938 12.90625 77.546875 12.609375 C 78.257812 12.316406 78.992188 12.09375 79.746094 11.945312 C 80.5 11.792969 81.261719 11.71875 82.03125 11.71875 L 292.96875 11.71875 C 293.738281 11.71875 294.5 11.792969 295.253906 11.945312 C 296.007812 12.09375 296.742188 12.316406 297.453125 12.609375 C 298.164062 12.90625 298.839844 13.265625 299.480469 13.695312 C 300.117188 14.121094 300.710938 14.605469 301.253906 15.152344 C 301.800781 15.695312 302.285156 16.289062 302.710938 16.925781 C 303.140625 17.566406 303.5 18.242188 303.796875 18.953125 C 304.089844 19.664062 304.3125 20.398438 304.460938 21.152344 C 304.613281 21.90625 304.6875 22.667969 304.6875 23.4375 Z M 304.6875 152.34375 " fill-opacity="1" fill-rule="nonzero"/><path fill="rgb(96.078491%, 69.40918%, 11.369324%)" d="M 23.4375 117.1875 L 69.492188 153.398438 L 154.335938 220.078125 L 152.34375 222.65625 L 22.03125 352.96875 C 20.398438 351.339844 18.9375 349.566406 17.652344 347.648438 C 16.367188 345.730469 15.285156 343.707031 14.398438 341.578125 C 13.515625 339.445312 12.847656 337.246094 12.394531 334.984375 C 11.945312 332.71875 11.71875 330.433594 11.71875 328.125 L 11.71875 140.625 C 11.71875 138.316406 11.945312 136.03125 12.394531 133.769531 C 12.847656 131.503906 13.515625 129.308594 14.398438 127.175781 C 15.285156 125.042969 16.367188 123.019531 17.652344 121.101562 C 18.9375 119.183594 20.398438 117.410156 22.03125 115.78125 Z M 23.4375 117.1875 " fill-opacity="1" fill-rule="nonzero"/><path fill="rgb(100%, 81.959534%, 21.958923%)" d="M 222.65625 222.65625 L 352.96875 352.96875 C 351.339844 354.601562 349.566406 356.0625 347.648438 357.347656 C 345.730469 358.632812 343.707031 359.714844 341.578125 360.601562 C 339.445312 361.484375 337.246094 362.152344 334.984375 362.605469 C 332.71875 363.054688 330.433594 363.28125 328.125 363.28125 L 46.875 363.28125 C 44.566406 363.28125 42.28125 363.054688 40.019531 362.605469 C 37.753906 362.152344 35.558594 361.484375 33.425781 360.601562 C 31.292969 359.714844 29.269531 358.632812 27.351562 357.347656 C 25.433594 356.0625 23.660156 354.601562 22.03125 352.96875 L 152.34375 222.65625 L 154.335938 220.078125 L 187.5 246.09375 L 220.664062 220.078125 Z M 222.65625 222.65625 " fill-opacity="1" fill-rule="nonzero"/><path fill="rgb(0%, 0%, 0%)" d="M 328.125 375 L 46.875 375 C 45.339844 375 43.808594 374.925781 42.28125 374.773438 C 40.753906 374.625 39.234375 374.398438 37.730469 374.097656 C 36.222656 373.800781 34.738281 373.425781 33.269531 372.980469 C 31.796875 372.535156 30.355469 372.019531 28.9375 371.433594 C 27.519531 370.84375 26.132812 370.1875 24.777344 369.464844 C 23.425781 368.742188 22.109375 367.953125 20.832031 367.101562 C 19.554688 366.246094 18.324219 365.332031 17.136719 364.359375 C 15.949219 363.386719 14.816406 362.355469 13.730469 361.269531 C 12.644531 360.183594 11.613281 359.050781 10.640625 357.863281 C 9.667969 356.675781 8.753906 355.445312 7.898438 354.167969 C 7.046875 352.890625 6.257812 351.574219 5.535156 350.222656 C 4.8125 348.867188 4.15625 347.480469 3.566406 346.0625 C 2.980469 344.644531 2.464844 343.199219 2.019531 341.730469 C 1.574219 340.261719 1.199219 338.777344 0.902344 337.269531 C 0.601562 335.765625 0.375 334.246094 0.226562 332.71875 C 0.0742188 331.191406 0 329.660156 0 328.125 L 0 140.625 C 0 139.089844 0.0742188 137.558594 0.226562 136.03125 C 0.375 134.503906 0.601562 132.984375 0.902344 131.480469 C 1.199219 129.972656 1.574219 128.488281 2.019531 127.019531 C 2.464844 125.546875 2.980469 124.105469 3.566406 122.6875 C 4.15625 121.269531 4.8125 119.882812 5.535156 118.527344 C 6.257812 117.175781 7.046875 115.859375 7.898438 114.582031 C 8.753906 113.304688 9.667969 112.074219 10.640625 110.886719 C 11.613281 109.699219 12.644531 108.566406 13.730469 107.480469 C 14.816406 106.394531 15.949219 105.363281 17.136719 104.390625 C 18.324219 103.417969 19.554688 102.503906 20.832031 101.648438 C 22.109375 100.796875 23.425781 100.007812 24.777344 99.285156 C 26.132812 98.5625 27.519531 97.90625 28.9375 97.316406 C 30.355469 96.730469 31.796875 96.214844 33.269531 95.769531 C 34.738281 95.324219 36.222656 94.949219 37.730469 94.652344 C 39.234375 94.351562 40.753906 94.125 42.28125 93.976562 C 43.808594 93.824219 45.339844 93.75 46.875 93.75 L 70.3125 93.75 C 71.082031 93.75 71.84375 93.824219 72.597656 93.976562 C 73.351562 94.125 74.085938 94.347656 74.796875 94.640625 C 75.507812 94.9375 76.183594 95.296875 76.824219 95.726562 C 77.460938 96.152344 78.054688 96.636719 78.597656 97.183594 C 79.144531 97.726562 79.628906 98.316406 80.054688 98.957031 C 80.484375 99.597656 80.84375 100.273438 81.140625 100.984375 C 81.433594 101.695312 81.65625 102.429688 81.804688 103.183594 C 81.957031 103.9375 82.03125 104.699219 82.03125 105.46875 C 82.03125 106.238281 81.957031 107 81.804688 107.753906 C 81.65625 108.507812 81.433594 109.242188 81.140625 109.953125 C 80.84375 110.664062 80.484375 111.339844 80.054688 111.980469 C 79.628906 112.617188 79.144531 113.210938 78.597656 113.753906 C 78.054688 114.300781 77.460938 114.785156 76.824219 115.210938 C 76.183594 115.640625 75.507812 116 74.796875 116.296875 C 74.085938 116.589844 73.351562 116.8125 72.597656 116.960938 C 71.84375 117.113281 71.082031 117.1875 70.3125 117.1875 L 46.875 117.1875 C 46.105469 117.1875 45.339844 117.226562 44.578125 117.300781 C 43.8125 117.375 43.054688 117.488281 42.300781 117.636719 C 41.550781 117.789062 40.804688 117.972656 40.070312 118.195312 C 39.335938 118.417969 38.613281 118.679688 37.90625 118.972656 C 37.195312 119.265625 36.503906 119.59375 35.828125 119.953125 C 35.148438 120.316406 34.492188 120.710938 33.855469 121.136719 C 33.214844 121.5625 32.601562 122.019531 32.007812 122.507812 C 31.414062 122.996094 30.84375 123.507812 30.300781 124.050781 C 29.757812 124.59375 29.246094 125.164062 28.757812 125.757812 C 28.269531 126.351562 27.8125 126.964844 27.386719 127.605469 C 26.960938 128.242188 26.566406 128.898438 26.203125 129.578125 C 25.84375 130.253906 25.515625 130.945312 25.222656 131.65625 C 24.929688 132.363281 24.667969 133.085938 24.445312 133.820312 C 24.222656 134.554688 24.039062 135.300781 23.886719 136.050781 C 23.738281 136.804688 23.625 137.5625 23.550781 138.328125 C 23.476562 139.089844 23.4375 139.855469 23.4375 140.625 L 23.4375 328.125 C 23.4375 328.894531 23.476562 329.660156 23.550781 330.421875 C 23.625 331.1875 23.738281 331.945312 23.886719 332.699219 C 24.039062 333.449219 24.222656 334.195312 24.445312 334.929688 C 24.667969 335.664062 24.929688 336.386719 25.222656 337.09375 C 25.515625 337.804688 25.84375 338.496094 26.203125 339.171875 C 26.566406 339.851562 26.960938 340.507812 27.386719 341.144531 C 27.8125 341.785156 28.269531 342.398438 28.757812 342.992188 C 29.246094 343.585938 29.757812 344.15625 30.300781 344.699219 C 30.84375 345.242188 31.414062 345.753906 32.007812 346.242188 C 32.601562 346.730469 33.214844 347.1875 33.855469 347.613281 C 34.492188 348.039062 35.148438 348.433594 35.828125 348.796875 C 36.503906 349.15625 37.195312 349.484375 37.90625 349.777344 C 38.613281 350.070312 39.335938 350.332031 40.070312 350.554688 C 40.804688 350.777344 41.550781 350.960938 42.300781 351.113281 C 43.054688 351.261719 43.8125 351.375 44.578125 351.449219 C 45.339844 351.523438 46.105469 351.5625 46.875 351.5625 L 328.125 351.5625 C 328.894531 351.5625 329.660156 351.523438 330.421875 351.449219 C 331.1875 351.375 331.945312 351.261719 332.699219 351.113281 C 333.449219 350.960938 334.195312 350.777344 334.929688 350.554688 C 335.664062 350.332031 336.386719 350.070312 337.09375 349.777344 C 337.804688 349.484375 338.496094 349.15625 339.171875 348.796875 C 339.851562 348.433594 340.507812 348.039062 341.144531 347.613281 C 341.785156 347.1875 342.398438 346.730469 342.992188 346.242188 C 343.585938 345.753906 344.15625 345.242188 344.699219 344.699219 C 345.242188 344.15625 345.753906 343.585938 346.242188 342.992188 C 346.730469 342.398438 347.1875 341.785156 347.613281 341.144531 C 348.039062 340.507812 348.433594 339.851562 348.796875 339.171875 C 349.15625 338.496094 349.484375 337.804688 349.777344 337.09375 C 350.070312 336.386719 350.332031 335.664062 350.554688 334.929688 C 350.777344 334.195312 350.960938 333.449219 351.113281 332.699219 C 351.261719 331.945312 351.375 331.1875 351.449219 330.421875 C 351.523438 329.660156 351.5625 328.894531 351.5625 328.125 L 351.5625 140.625 C 351.5625 139.855469 351.523438 139.089844 351.449219 138.328125 C 351.375 137.5625 351.261719 136.804688 351.113281 136.050781 C 350.960938 135.300781 350.777344 134.554688 350.554688 133.820312 C 350.332031 133.085938 350.070312 132.363281 349.777344 131.65625 C 349.484375 130.945312 349.15625 130.253906 348.796875 129.578125 C 348.433594 128.898438 348.039062 128.242188 347.613281 127.605469 C 347.1875 126.964844 346.730469 126.351562 346.242188 125.757812 C 345.753906 125.164062 345.242188 124.59375 344.699219 124.050781 C 344.15625 123.507812 343.585938 122.996094 342.992188 122.507812 C 342.398438 122.019531 341.785156 121.5625 341.144531 121.136719 C 340.507812 120.710938 339.851562 120.316406 339.171875 119.953125 C 338.496094 119.59375 337.804688 119.265625 337.09375 118.972656 C 336.386719 118.679688 335.664062 118.417969 334.929688 118.195312 C 334.195312 117.972656 333.449219 117.789062 332.699219 117.636719 C 331.945312 117.488281 331.1875 117.375 330.421875 117.300781 C 329.660156 117.226562 328.894531 117.1875 328.125 117.1875 L 304.6875 117.1875 C 303.917969 117.1875 303.15625 117.113281 302.402344 116.960938 C 301.648438 116.8125 300.914062 116.589844 300.203125 116.296875 C 299.492188 116 298.816406 115.640625 298.175781 115.210938 C 297.535156 114.785156 296.945312 114.300781 296.402344 113.753906 C 295.855469 113.210938 295.371094 112.617188 294.945312 111.980469 C 294.515625 111.339844 294.15625 110.664062 293.859375 109.953125 C 293.566406 109.242188 293.34375 108.507812 293.195312 107.753906 C 293.042969 107 292.96875 106.238281 292.96875 105.46875 C 292.96875 104.699219 293.042969 103.9375 293.195312 103.183594 C 293.34375 102.429688 293.566406 101.695312 293.859375 100.984375 C 294.15625 100.273438 294.515625 99.597656 294.945312 98.957031 C 295.371094 98.316406 295.855469 97.726562 296.402344 97.183594 C 296.945312 96.636719 297.535156 96.152344 298.175781 95.726562 C 298.816406 95.296875 299.492188 94.9375 300.203125 94.640625 C 300.914062 94.347656 301.648438 94.125 302.402344 93.976562 C 303.15625 93.824219 303.917969 93.75 304.6875 93.75 L 328.125 93.75 C 329.660156 93.75 331.191406 93.824219 332.71875 93.976562 C 334.246094 94.125 335.765625 94.351562 337.269531 94.652344 C 338.777344 94.949219 340.261719 95.324219 341.730469 95.769531 C 343.199219 96.214844 344.644531 96.730469 346.0625 97.316406 C 347.480469 97.90625 348.867188 98.5625 350.222656 99.285156 C 351.574219 100.007812 352.890625 100.796875 354.167969 101.648438 C 355.445312 102.503906 356.675781 103.417969 357.863281 104.390625 C 359.050781 105.363281 360.183594 106.394531 361.269531 107.480469 C 362.355469 108.566406 363.386719 109.699219 364.359375 110.886719 C 365.332031 112.074219 366.246094 113.304688 367.101562 114.582031 C 367.953125 115.859375 368.742188 117.175781 369.464844 118.527344 C 370.1875 119.882812 370.84375 121.269531 371.433594 122.6875 C 372.019531 124.105469 372.535156 125.546875 372.980469 127.019531 C 373.425781 128.488281 373.800781 129.972656 374.097656 131.480469 C 374.398438 132.984375 374.625 134.503906 374.773438 136.03125 C 374.925781 137.558594 375 139.089844 375 140.625 L 375 328.125 C 375 329.660156 374.925781 331.191406 374.773438 332.71875 C 374.625 334.246094 374.398438 335.765625 374.097656 337.269531 C 373.800781 338.777344 373.425781 340.261719 372.980469 341.730469 C 372.535156 343.199219 372.019531 344.644531 371.433594 346.0625 C 370.84375 347.480469 370.1875 348.867188 369.464844 350.222656 C 368.742188 351.574219 367.953125 352.890625 367.101562 354.167969 C 366.246094 355.445312 365.332031 356.675781 364.359375 357.863281 C 363.386719 359.050781 362.355469 360.183594 361.269531 361.269531 C 360.183594 362.355469 359.050781 363.386719 357.863281 364.359375 C 356.675781 365.332031 355.445312 366.246094 354.167969 367.101562 C 352.890625 367.953125 351.574219 368.742188 350.222656 369.464844 C 348.867188 370.1875 347.480469 370.84375 346.0625 371.433594 C 344.644531 372.019531 343.199219 372.535156 341.730469 372.980469 C 340.261719 373.425781 338.777344 373.800781 337.269531 374.097656 C 335.765625 374.398438 334.246094 374.625 332.71875 374.773438 C 331.191406 374.925781 329.660156 375 328.125 375 Z M 328.125 375 " fill-opacity="1" fill-rule="nonzero"/><path fill="rgb(0%, 0%, 0%)" d="M 187.5 257.8125 C 186.1875 257.8125 184.910156 257.597656 183.667969 257.167969 C 182.425781 256.738281 181.289062 256.117188 180.257812 255.304688 L 16.195312 126.398438 C 15.574219 125.929688 15.007812 125.402344 14.496094 124.816406 C 13.980469 124.234375 13.527344 123.605469 13.140625 122.933594 C 12.75 122.261719 12.429688 121.554688 12.179688 120.816406 C 11.933594 120.082031 11.757812 119.328125 11.660156 118.554688 C 11.5625 117.785156 11.539062 117.011719 11.59375 116.234375 C 11.648438 115.460938 11.78125 114.695312 11.988281 113.945312 C 12.195312 113.199219 12.472656 112.476562 12.824219 111.78125 C 13.175781 111.085938 13.589844 110.433594 14.070312 109.824219 C 14.550781 109.210938 15.089844 108.652344 15.679688 108.148438 C 16.273438 107.644531 16.90625 107.203125 17.585938 106.824219 C 18.265625 106.445312 18.976562 106.140625 19.71875 105.902344 C 20.457031 105.667969 21.214844 105.503906 21.988281 105.417969 C 22.761719 105.332031 23.535156 105.324219 24.308594 105.390625 C 25.085938 105.460938 25.84375 105.605469 26.589844 105.824219 C 27.335938 106.042969 28.054688 106.335938 28.742188 106.695312 C 29.429688 107.058594 30.078125 107.484375 30.679688 107.976562 L 187.5 231.1875 L 344.320312 107.976562 C 344.921875 107.484375 345.570312 107.058594 346.257812 106.695312 C 346.945312 106.335938 347.664062 106.042969 348.410156 105.824219 C 349.15625 105.605469 349.914062 105.460938 350.691406 105.390625 C 351.464844 105.324219 352.238281 105.332031 353.011719 105.417969 C 353.785156 105.503906 354.542969 105.667969 355.28125 105.902344 C 356.023438 106.140625 356.734375 106.445312 357.414062 106.824219 C 358.09375 107.203125 358.726562 107.644531 359.320312 108.148438 C 359.910156 108.652344 360.449219 109.210938 360.929688 109.824219 C 361.410156 110.433594 361.824219 111.085938 362.175781 111.78125 C 362.527344 112.476562 362.804688 113.199219 363.011719 113.945312 C 363.21875 114.695312 363.351562 115.460938 363.40625 116.234375 C 363.460938 117.011719 363.4375 117.785156 363.339844 118.554688 C 363.242188 119.328125 363.066406 120.082031 362.820312 120.816406 C 362.570312 121.554688 362.25 122.261719 361.859375 122.933594 C 361.472656 123.605469 361.019531 124.234375 360.503906 124.816406 C 359.992188 125.402344 359.425781 125.929688 358.804688 126.398438 L 194.742188 255.304688 C 193.707031 256.117188 192.570312 256.738281 191.332031 257.167969 C 190.089844 257.597656 188.8125 257.8125 187.5 257.8125 Z M 187.5 257.8125 " fill-opacity="1" fill-rule="nonzero"/><path fill="rgb(0%, 0%, 0%)" d="M 23.4375 363.28125 C 22.277344 363.28125 21.144531 363.113281 20.035156 362.777344 C 18.925781 362.441406 17.890625 361.949219 16.929688 361.304688 C 15.964844 360.660156 15.117188 359.890625 14.378906 358.996094 C 13.644531 358.101562 13.054688 357.117188 12.613281 356.046875 C 12.167969 354.976562 11.890625 353.863281 11.777344 352.710938 C 11.664062 351.558594 11.71875 350.414062 11.945312 349.277344 C 12.171875 348.140625 12.558594 347.0625 13.105469 346.039062 C 13.652344 345.015625 14.332031 344.097656 15.152344 343.277344 L 144.058594 214.371094 C 144.605469 213.84375 145.199219 213.371094 145.839844 212.957031 C 146.476562 212.546875 147.148438 212.199219 147.855469 211.914062 C 148.5625 211.632812 149.289062 211.421875 150.039062 211.28125 C 150.785156 211.140625 151.539062 211.074219 152.300781 211.082031 C 153.0625 211.089844 153.816406 211.167969 154.5625 211.320312 C 155.304688 211.476562 156.03125 211.699219 156.730469 211.992188 C 157.433594 212.289062 158.101562 212.648438 158.730469 213.070312 C 159.363281 213.496094 159.949219 213.976562 160.484375 214.515625 C 161.023438 215.050781 161.503906 215.636719 161.929688 216.269531 C 162.351562 216.898438 162.710938 217.566406 163.007812 218.269531 C 163.300781 218.96875 163.523438 219.695312 163.679688 220.4375 C 163.832031 221.183594 163.910156 221.9375 163.917969 222.699219 C 163.925781 223.460938 163.859375 224.214844 163.71875 224.960938 C 163.578125 225.710938 163.367188 226.4375 163.085938 227.144531 C 162.800781 227.851562 162.453125 228.523438 162.042969 229.160156 C 161.628906 229.800781 161.15625 230.394531 160.628906 230.941406 L 31.722656 359.847656 C 30.625 360.945312 29.355469 361.792969 27.921875 362.390625 C 26.484375 362.984375 24.992188 363.28125 23.4375 363.28125 Z M 23.4375 363.28125 " fill-opacity="1" fill-rule="nonzero"/><path fill="rgb(0%, 0%, 0%)" d="M 351.5625 363.28125 C 350.007812 363.28125 348.515625 362.984375 347.078125 362.386719 C 345.644531 361.792969 344.375 360.945312 343.277344 359.847656 L 214.371094 230.941406 C 213.84375 230.394531 213.371094 229.800781 212.957031 229.160156 C 212.546875 228.523438 212.199219 227.851562 211.917969 227.144531 C 211.632812 226.4375 211.421875 225.710938 211.28125 224.960938 C 211.140625 224.214844 211.074219 223.460938 211.082031 222.699219 C 211.089844 221.9375 211.167969 221.183594 211.320312 220.4375 C 211.476562 219.695312 211.699219 218.96875 211.992188 218.269531 C 212.289062 217.566406 212.648438 216.898438 213.070312 216.269531 C 213.496094 215.636719 213.976562 215.050781 214.515625 214.515625 C 215.050781 213.976562 215.636719 213.496094 216.269531 213.070312 C 216.898438 212.648438 217.566406 212.289062 218.269531 211.992188 C 218.96875 211.699219 219.695312 211.476562 220.4375 211.320312 C 221.183594 211.167969 221.9375 211.089844 222.699219 211.082031 C 223.460938 211.074219 224.214844 211.140625 224.960938 211.28125 C 225.710938 211.421875 226.4375 211.632812 227.144531 211.917969 C 227.851562 212.199219 228.523438 212.546875 229.160156 212.957031 C 229.800781 213.371094 230.394531 213.84375 230.941406 214.371094 L 359.847656 343.277344 C 360.667969 344.097656 361.347656 345.015625 361.894531 346.039062 C 362.441406 347.0625 362.828125 348.140625 363.054688 349.277344 C 363.28125 350.414062 363.335938 351.558594 363.222656 352.710938 C 363.109375 353.863281 362.832031 354.976562 362.386719 356.046875 C 361.941406 357.117188 361.355469 358.101562 360.617188 358.996094 C 359.882812 359.890625 359.035156 360.664062 358.070312 361.304688 C 357.105469 361.949219 356.070312 362.441406 354.960938 362.777344 C 353.855469 363.113281 352.722656 363.28125 351.5625 363.28125 Z M 351.5625 363.28125 " fill-opacity="1" fill-rule="nonzero"/><path fill="rgb(0%, 0%, 0%)" d="M 304.6875 164.0625 C 303.917969 164.0625 303.15625 163.988281 302.402344 163.835938 C 301.648438 163.6875 300.914062 163.464844 300.203125 163.171875 C 299.492188 162.875 298.816406 162.515625 298.175781 162.085938 C 297.535156 161.660156 296.945312 161.175781 296.402344 160.628906 C 295.855469 160.085938 295.371094 159.492188 294.945312 158.855469 C 294.515625 158.214844 294.15625 157.539062 293.859375 156.828125 C 293.566406 156.117188 293.34375 155.382812 293.195312 154.628906 C 293.042969 153.875 292.96875 153.113281 292.96875 152.34375 L 292.96875 23.4375 L 82.03125 23.4375 L 82.03125 152.34375 C 82.03125 153.113281 81.957031 153.875 81.804688 154.628906 C 81.65625 155.382812 81.433594 156.117188 81.140625 156.828125 C 80.84375 157.539062 80.484375 158.214844 80.054688 158.855469 C 79.628906 159.492188 79.144531 160.085938 78.597656 160.628906 C 78.054688 161.175781 77.460938 161.660156 76.824219 162.085938 C 76.183594 162.515625 75.507812 162.875 74.796875 163.171875 C 74.085938 163.464844 73.351562 163.6875 72.597656 163.835938 C 71.84375 163.988281 71.082031 164.0625 70.3125 164.0625 C 69.542969 164.0625 68.78125 163.988281 68.027344 163.835938 C 67.273438 163.6875 66.539062 163.464844 65.828125 163.171875 C 65.117188 162.875 64.441406 162.515625 63.800781 162.085938 C 63.164062 161.660156 62.570312 161.175781 62.027344 160.628906 C 61.480469 160.085938 60.996094 159.492188 60.570312 158.855469 C 60.140625 158.214844 59.78125 157.539062 59.484375 156.828125 C 59.191406 156.117188 58.96875 155.382812 58.820312 154.628906 C 58.667969 153.875 58.59375 153.113281 58.59375 152.34375 L 58.59375 23.4375 C 58.59375 22.667969 58.632812 21.902344 58.707031 21.140625 C 58.78125 20.375 58.894531 19.617188 59.042969 18.863281 C 59.195312 18.113281 59.378906 17.367188 59.601562 16.632812 C 59.824219 15.898438 60.085938 15.175781 60.378906 14.46875 C 60.671875 13.757812 61 13.066406 61.359375 12.390625 C 61.722656 11.710938 62.117188 11.054688 62.542969 10.417969 C 62.96875 9.777344 63.425781 9.164062 63.914062 8.570312 C 64.402344 7.976562 64.914062 7.40625 65.457031 6.863281 C 66 6.320312 66.570312 5.808594 67.164062 5.320312 C 67.757812 4.832031 68.371094 4.375 69.011719 3.949219 C 69.648438 3.523438 70.304688 3.128906 70.984375 2.765625 C 71.660156 2.40625 72.351562 2.078125 73.0625 1.785156 C 73.769531 1.492188 74.492188 1.230469 75.226562 1.007812 C 75.960938 0.785156 76.707031 0.601562 77.457031 0.449219 C 78.210938 0.300781 78.96875 0.1875 79.734375 0.113281 C 80.496094 0.0390625 81.261719 0 82.03125 0 L 292.96875 0 C 293.738281 0 294.503906 0.0390625 295.265625 0.113281 C 296.03125 0.1875 296.789062 0.300781 297.542969 0.449219 C 298.292969 0.601562 299.039062 0.785156 299.773438 1.007812 C 300.507812 1.230469 301.230469 1.492188 301.9375 1.785156 C 302.648438 2.078125 303.339844 2.40625 304.015625 2.765625 C 304.695312 3.128906 305.351562 3.523438 305.988281 3.949219 C 306.628906 4.375 307.242188 4.832031 307.835938 5.320312 C 308.429688 5.808594 309 6.320312 309.542969 6.863281 C 310.085938 7.40625 310.597656 7.976562 311.085938 8.570312 C 311.574219 9.164062 312.03125 9.777344 312.457031 10.417969 C 312.882812 11.054688 313.277344 11.710938 313.640625 12.390625 C 314 13.066406 314.328125 13.757812 314.621094 14.46875 C 314.914062 15.175781 315.175781 15.898438 315.398438 16.632812 C 315.621094 17.367188 315.804688 18.113281 315.957031 18.863281 C 316.105469 19.617188 316.21875 20.375 316.292969 21.140625 C 316.367188 21.902344 316.40625 22.667969 316.40625 23.4375 L 316.40625 152.34375 C 316.40625 153.113281 316.332031 153.875 316.179688 154.628906 C 316.03125 155.382812 315.808594 156.117188 315.515625 156.828125 C 315.21875 157.539062 314.859375 158.214844 314.429688 158.855469 C 314.003906 159.492188 313.519531 160.085938 312.972656 160.628906 C 312.429688 161.175781 311.835938 161.660156 311.199219 162.085938 C 310.558594 162.515625 309.882812 162.875 309.171875 163.171875 C 308.460938 163.464844 307.726562 163.6875 306.972656 163.835938 C 306.21875 163.988281 305.457031 164.0625 304.6875 164.0625 Z M 304.6875 164.0625 " fill-opacity="1" fill-rule="nonzero"/><path fill="rgb(0%, 0%, 0%)" d="M 164.0625 152.34375 C 162.507812 152.34375 161.015625 152.046875 159.578125 151.449219 C 158.144531 150.855469 156.875 150.007812 155.777344 148.910156 L 132.339844 125.472656 C 131.8125 124.925781 131.339844 124.332031 130.925781 123.691406 C 130.515625 123.054688 130.167969 122.382812 129.882812 121.675781 C 129.601562 120.96875 129.390625 120.242188 129.25 119.492188 C 129.109375 118.746094 129.042969 117.992188 129.050781 117.230469 C 129.058594 116.46875 129.136719 115.714844 129.289062 114.96875 C 129.445312 114.226562 129.667969 113.5 129.960938 112.800781 C 130.257812 112.097656 130.613281 111.429688 131.039062 110.800781 C 131.464844 110.167969 131.945312 109.582031 132.484375 109.042969 C 133.019531 108.507812 133.605469 108.027344 134.238281 107.601562 C 134.867188 107.175781 135.535156 106.820312 136.238281 106.523438 C 136.9375 106.230469 137.664062 106.007812 138.40625 105.851562 C 139.152344 105.699219 139.90625 105.621094 140.667969 105.613281 C 141.429688 105.605469 142.183594 105.671875 142.929688 105.8125 C 143.679688 105.953125 144.40625 106.164062 145.113281 106.445312 C 145.820312 106.730469 146.492188 107.078125 147.128906 107.488281 C 147.769531 107.902344 148.363281 108.375 148.910156 108.902344 L 164.0625 124.054688 L 226.089844 62.027344 C 226.628906 61.46875 227.222656 60.96875 227.859375 60.523438 C 228.5 60.082031 229.179688 59.707031 229.894531 59.402344 C 230.609375 59.09375 231.347656 58.859375 232.109375 58.699219 C 232.871094 58.539062 233.640625 58.457031 234.417969 58.449219 C 235.195312 58.441406 235.964844 58.511719 236.730469 58.660156 C 237.496094 58.808594 238.238281 59.027344 238.957031 59.324219 C 239.675781 59.617188 240.359375 59.980469 241.007812 60.410156 C 241.65625 60.839844 242.253906 61.332031 242.804688 61.882812 C 243.355469 62.433594 243.847656 63.03125 244.277344 63.679688 C 244.707031 64.328125 245.070312 65.011719 245.363281 65.730469 C 245.660156 66.449219 245.878906 67.191406 246.027344 67.957031 C 246.175781 68.722656 246.246094 69.492188 246.238281 70.269531 C 246.230469 71.046875 246.148438 71.816406 245.988281 72.578125 C 245.828125 73.339844 245.59375 74.078125 245.285156 74.792969 C 244.980469 75.507812 244.605469 76.1875 244.164062 76.828125 C 243.71875 77.464844 243.21875 78.058594 242.660156 78.597656 L 172.347656 148.910156 C 171.25 150.007812 169.980469 150.855469 168.546875 151.453125 C 167.109375 152.046875 165.617188 152.34375 164.0625 152.34375 Z M 164.0625 152.34375 " fill-opacity="1" fill-rule="nonzero"/></svg>